# xmcd CD database file
#
# Track frame offsets:
#	150
#	45239
#	59414
#	74572
#	98084
#	112215
#	133693
#	171925
#
# Disc length: 2497 seconds
#
# Revision: 0
# Processed by: cddbd v1.5.2PL0 Copyright (c) Steve Scherf et al.
# Submitted via: CDex 1.51
#
DISCID=7309bf08
DTITLE=Masada - Live At Barbican - 1/25/00
DYEAR=1900
DGENRE=Jazz
TTITLE0=Piram
TTITLE1=Sippur
TTITLE2=Hath-Arob
TTITLE3=Paran
TTITLE4=Shilim
TTITLE5=Kochot
TTITLE6=Ne'eman
TTITLE7=Katzatz
EXTD=
EXTT0=
EXTT1=
EXTT2=
EXTT3=
EXTT4=
EXTT5=
EXTT6=
EXTT7=
PLAYORDER=
